<svg width="419" height="419" viewBox="0 0 419 419" fill="none" xmlns="http://www.w3.org/2000/svg">
<g opacity="0.4">
<path d="M225.958 16.341L209.5 209.5L193.059 16.341H225.958Z" fill="#EBEBEB"/>
<path d="M127.167 33.9893L209.5 209.5L98.6748 50.4392L127.167 33.9893Z" fill="#EBEBEB"/>
<path d="M50.447 98.6661L209.499 209.5L33.9971 127.158L50.447 98.6661Z" fill="#EBEBEB"/>
<path d="M16.3408 193.042L209.5 209.5L16.3408 225.942V193.042Z" fill="#EBEBEB"/>
<path d="M33.9893 291.834L209.5 209.5L50.4392 320.326L33.9893 291.834Z" fill="#EBEBEB"/>
<path d="M98.666 368.552L209.5 209.5L127.158 385.002L98.666 368.552Z" fill="#EBEBEB"/>
<path d="M193.041 402.659L209.499 209.5L225.941 402.659H193.041Z" fill="#EBEBEB"/>
<path d="M291.834 385.011L209.5 209.5L320.326 368.561L291.834 385.011Z" fill="#EBEBEB"/>
<path d="M368.552 320.334L209.5 209.5L385.002 291.842L368.552 320.334Z" fill="#EBEBEB"/>
<path d="M402.659 225.958L209.5 209.5L402.659 193.058V225.958Z" fill="#EBEBEB"/>
<path d="M385.011 127.167L209.5 209.5L368.561 98.6745L385.011 127.167Z" fill="#EBEBEB"/>
<path d="M320.334 50.4476L209.5 209.5L291.842 33.9977L320.334 50.4476Z" fill="#EBEBEB"/>
</g>
<path d="M113.859 248.894L73.5181 256.679C73.5181 256.679 59.557 252.179 53.5318 231.565C47.6742 211.511 56.5318 198.095 56.5318 198.095L94.0994 184.503L94.6524 186.313C94.6524 186.313 88.0993 200.165 93.2865 218.349C99.3201 239.484 113.34 247.202 113.34 247.202L113.859 248.894Z" fill="#3758F9"/>
<g opacity="0.5">
<path d="M113.859 248.894L73.5181 256.679C73.5181 256.679 59.557 252.179 53.5318 231.565C47.6742 211.511 56.5318 198.095 56.5318 198.095L94.0994 184.503L94.6524 186.313C94.6524 186.313 88.0993 200.165 93.2865 218.349C99.3201 239.484 113.34 247.202 113.34 247.202L113.859 248.894Z" fill="black"/>
</g>
<path opacity="0.1" d="M94.1074 184.511C94.1074 184.511 85.0235 199.519 92.7247 222.003C100.233 243.9 113.859 248.894 113.859 248.894L113.339 247.193C113.339 247.193 99.3113 239.475 93.2861 218.341C88.1827 200.433 94.4509 186.74 94.6521 186.321L94.1074 184.511Z" fill="black"/>
<path d="M205.168 364.706L214.83 356.116C214.83 356.116 193.838 311.887 189.38 299.962C184.922 288.037 180.171 236.526 180.171 236.526L171.355 236.777L158.919 292.387L205.168 364.706Z" fill="#2047D3"/>
<path opacity="0.1" d="M205.168 364.706L214.83 356.116C214.83 356.116 193.838 311.887 189.38 299.962C184.922 288.037 180.171 236.526 180.171 236.526L171.355 236.777L158.919 292.387L205.168 364.706Z" fill="#2047D3"/>
<path d="M123.798 243.246C123.798 243.246 120.086 295.806 123.798 317.527C127.511 339.248 141.631 377.519 141.631 377.519L205.168 364.698C205.168 364.698 185.324 320.124 181.017 308.032C171.732 281.97 171.355 236.769 171.355 236.769L123.798 243.246Z" fill="#3758F9"/>
<path d="M138.237 381.34L205.168 364.706L214.83 356.117L196.83 313.219L194.668 312.448L184.822 317.644L127.569 334.086L127.159 331.999L124.771 336.951L138.237 381.34Z" fill="#37474F"/>
<path d="M124.771 336.951L186.12 319.353L196.83 313.219L194.668 312.448L184.822 317.644L127.569 334.086L127.159 331.999L124.771 336.951Z" fill="#455A64"/>
<path d="M186.12 319.354L205.168 364.706L214.83 356.117L196.83 313.219L186.12 319.354Z" fill="#263238"/>
<path opacity="0.15" d="M182.047 254.71L172.285 254.945L122.583 266.962C123.069 253.57 123.798 243.246 123.798 243.246L171.355 236.777L180.17 236.526C180.17 236.526 180.899 244.403 182.047 254.71Z" fill="black"/>
<path d="M274.906 53.0706C274.906 53.0706 235.303 110.197 175.092 145.477C138.346 167.013 111.949 176.324 109.242 177.22C109.242 177.22 92.9013 185.935 100.142 218.098C110.005 249.556 128.516 248.903 128.516 248.903C131.307 248.325 158.81 243.137 201.406 243.338C271.194 243.665 334.103 273.222 334.103 273.222C334.153 273.129 334.212 273.037 334.262 272.937C321.55 268.453 306.591 246.699 294.038 215.508C293.234 213.506 292.437 211.461 291.658 209.374C287.099 197.307 282.918 184.058 279.34 169.905C275.342 155.868 272.309 142.309 270.205 129.58C269.837 127.384 269.493 125.222 269.183 123.077C264.398 89.8001 266.434 63.4785 275.183 53.2214C275.091 53.1879 274.999 53.1292 274.906 53.0706Z" fill="#3758F9"/>
<path d="M274.906 53.0706C274.906 53.0706 235.302 110.197 175.092 145.477C138.345 167.013 111.948 176.324 109.242 177.212C109.242 177.212 96.3952 184.067 98.5404 208.05C98.5572 208.352 98.5991 208.645 98.6242 208.939C98.9175 211.763 99.412 214.805 100.149 218.09C110.013 249.548 128.524 248.894 128.524 248.894C131.323 248.316 158.826 243.137 201.413 243.338C271.202 243.657 334.111 273.222 334.111 273.222L334.27 272.945C321.557 268.462 306.599 246.707 294.046 215.517C293.241 213.514 292.445 211.461 291.666 209.383C287.107 197.324 282.926 184.067 279.347 169.913C277.755 164.323 276.314 158.801 275.023 153.388C275.015 153.337 275.006 153.287 274.99 153.228C274.629 151.712 274.277 150.203 273.942 148.703C273.087 144.865 272.3 141.077 271.596 137.348C271.093 134.734 270.641 132.136 270.213 129.58C269.844 127.393 269.501 125.222 269.199 123.085C268.847 120.622 268.529 118.192 268.252 115.812C268.018 113.8 267.808 111.831 267.624 109.887C267.532 108.865 267.439 107.842 267.364 106.845C265.302 81.3698 267.934 61.7606 275.208 53.2382C275.09 53.1879 274.998 53.1292 274.906 53.0706Z" fill="#3758F9"/>
<path opacity="0.3" d="M263.3 95.5572L262.211 95.884L262.228 95.9594L271.152 136.192L257.526 99.2109L254.518 100.074L261.532 135.396L250.755 104.222L246.306 105.42L254.518 150.203L241.931 116.901L236.099 118.585L242.451 151.402L232.361 123.815L225.64 125.641L230.861 155.156L223.227 137.583L216.238 139.586L218.752 156.723L211.436 140.675L204.347 142.971L208.772 165.002L199.151 144.438L192.204 146.365L194.961 172.284L187.369 156.43L180.841 158.499L184.545 179.86L176.416 164.96L170.358 166.946L171.439 174.723L167.098 165.145L161.29 166.871L163.88 182.743L158.525 175.276L153.355 177.497L154.343 182.433L151.637 177.681L146.592 179.332L147.975 190.461L141.673 178.318L137.148 179.676L138.128 188.265L133.402 179.29L129.312 180.53L131.282 197.299L125.918 184.595L122.667 185.24L122.826 199.595L119.432 193.167L116.734 193.997L117.899 202.964L113.449 193.846L111.463 194.274L111.362 211.067L102.438 196.704L101.449 196.955L100.896 211.738L98.541 208.101C98.5578 208.402 98.5997 208.696 98.6248 208.989L100.904 212.693L101.382 212.576L102.404 198.749L111.463 214.344L112.988 213.933L113.424 198.816L119.013 211.059L121.418 210.372L120.438 201.472L123.078 206.626L125.969 205.913L126.019 193.93L133.008 211.394L136.737 210.447L134.818 191.592L139.762 201.246L144.078 199.938L143.273 192.195L150.028 205.603L154.88 204.128L153.505 192.145L158.064 200.29L163.251 198.371L161.542 189.531L166.419 196.419L171.732 194.24L170.877 188.768L174.682 197.324L180.724 195.598L179.131 183.715L188.383 200.885L194.626 198.723L191.819 182.064L197.492 194.089L204.255 192.195L201.699 167.332L215.14 196.293L222.188 193.989L218.006 173.047L222.867 183.656L229.914 181.57L227.585 165.966L236.459 186.321L243.356 184.234L239.551 163.242L250.462 192.547L256.806 190.762L248.987 151.795L260.099 180.321L265.311 178.846L256.68 134.482L267.239 163.98L271.035 162.924L261.7 118.82L274.999 153.463L275.032 153.455C275.024 153.404 275.015 153.354 274.999 153.295C274.638 151.779 274.286 150.27 273.951 148.77C273.096 144.932 272.309 141.144 271.605 137.415C271.102 134.801 270.649 132.203 270.222 129.647C269.853 127.46 269.51 125.289 269.208 123.153C268.856 120.689 268.538 118.259 268.261 115.879L265.445 104.306C266.158 106.141 266.887 108.027 267.633 109.954C267.54 108.932 267.448 107.909 267.373 106.912L263.3 95.5572Z" fill="white"/>
<path d="M135.531 250.151L87.4126 259.436C87.4126 259.436 70.7615 254.073 63.5798 229.478C56.5909 205.561 67.1581 189.564 67.1581 189.564L111.958 173.349L112.62 175.502C112.62 175.502 104.801 192.019 110.994 213.707C118.184 238.914 134.91 248.115 134.91 248.115L135.531 250.151Z" fill="#3758F9"/>
<g opacity="0.2">
<path d="M135.531 250.151L87.4126 259.436C87.4126 259.436 70.7615 254.073 63.5798 229.478C56.5909 205.561 67.1581 189.564 67.1581 189.564L111.958 173.349L112.62 175.502C112.62 175.502 104.801 192.019 110.994 213.707C118.184 238.914 134.91 248.115 134.91 248.115L135.531 250.151Z" fill="black"/>
</g>
<path opacity="0.1" d="M111.975 173.357C111.975 173.357 101.139 191.257 110.332 218.073C119.282 244.185 135.539 250.151 135.539 250.151L134.919 248.123C134.919 248.123 118.193 238.922 111.003 213.715C104.91 192.355 112.394 176.03 112.637 175.519L111.975 173.357Z" fill="black"/>
<g opacity="0.2">
<path d="M72.773 193.645C72.2366 193.645 71.7338 193.293 71.5746 192.757C71.3735 192.095 71.7506 191.391 72.4126 191.19L83.2312 187.905C83.8932 187.704 84.5971 188.081 84.7983 188.743C84.9994 189.405 84.6223 190.109 83.9603 190.31L73.1417 193.595C73.016 193.628 72.8987 193.645 72.773 193.645Z" fill="black"/>
<path d="M71.8765 199.846C71.3402 199.846 70.8374 199.494 70.6781 198.958C70.477 198.296 70.8541 197.592 71.5161 197.391L82.3347 194.106C83.0051 193.905 83.7007 194.282 83.9018 194.944C84.1029 195.606 83.7258 196.31 83.0638 196.511L72.2452 199.796C72.1195 199.821 71.9938 199.846 71.8765 199.846Z" fill="black"/>
</g>
<g opacity="0.2">
<path d="M88.4605 250.151C87.9242 250.126 87.4465 249.749 87.304 249.196C87.1364 248.526 87.5471 247.839 88.2258 247.671L99.2036 244.964C99.874 244.797 100.561 245.207 100.729 245.886C100.896 246.556 100.486 247.244 99.807 247.411L88.8292 250.118C88.7119 250.143 88.5862 250.151 88.4605 250.151Z" fill="black"/>
<path d="M92.8013 254.894C92.265 254.869 91.7873 254.492 91.6449 253.939C91.4773 253.269 91.8879 252.582 92.5667 252.414L103.544 249.707C104.223 249.54 104.902 249.95 105.07 250.629C105.237 251.299 104.827 251.987 104.148 252.154L93.17 254.861C93.0443 254.894 92.927 254.903 92.8013 254.894Z" fill="black"/>
</g>
<path opacity="0.1" d="M334.262 272.945L334.102 273.222C334.102 273.222 271.185 243.665 201.405 243.347C168.84 243.196 145.1 246.188 134.474 247.864C134.759 248.04 134.91 248.123 134.91 248.123L135.53 250.151L87.4204 259.436C87.4204 259.436 70.7693 254.073 63.5877 229.486C56.5987 205.57 67.1659 189.572 67.1659 189.572C66.0681 198.497 77.0962 218.014 92.3981 217.092C103.921 216.397 108.622 196.285 108.622 196.285C108.622 196.285 145.653 231.891 222.632 219.028C248.124 214.763 276.381 198.078 282.976 183.279C285.649 192.472 288.566 201.204 291.658 209.383C292.437 211.469 293.225 213.514 294.038 215.525C306.591 246.707 321.549 268.462 334.262 272.945Z" fill="black"/>
<path d="M274.973 52.4588C276.724 50.4309 278.752 49.0398 281.057 48.3526C300.272 42.604 330.8 88.1744 349.261 150.086C367.722 211.997 367.102 266.87 347.912 272.585C347.535 272.694 347.183 272.777 346.798 272.853C346.68 272.886 346.563 272.895 346.446 272.903C339.331 274.051 330.817 268.663 322.018 258.397C309.917 244.26 297.263 220.897 286.872 192.505C284.316 185.567 281.911 178.318 279.682 170.818C276.313 159.471 273.54 148.36 271.461 137.742C263.442 97.3924 264.674 64.2244 274.973 52.4588Z" fill="#1C2F66"/>
<path opacity="0.6" d="M274.973 52.4588C276.724 50.4309 278.752 49.0398 281.057 48.3526C300.272 42.604 330.8 88.1744 349.261 150.086C367.722 211.997 367.102 266.87 347.912 272.585C347.535 272.694 347.183 272.777 346.798 272.853C346.68 272.886 346.563 272.895 346.446 272.903C339.331 274.051 330.817 268.663 322.018 258.397C309.917 244.26 297.263 220.897 286.872 192.505C284.316 185.567 281.911 178.318 279.682 170.818C276.313 159.471 273.54 148.36 271.461 137.742C263.442 97.3924 264.674 64.2244 274.973 52.4588Z" fill="#1C2F66"/>
<path opacity="0.2" d="M360.08 198.045L278.66 167.349C278.987 168.513 279.322 169.662 279.674 170.826C281.912 178.326 284.308 185.567 286.873 192.514C297.264 220.905 309.926 244.26 322.027 258.397C330.826 268.671 339.348 274.06 346.454 272.912C346.572 272.903 346.689 272.895 346.806 272.861C347.183 272.786 347.535 272.702 347.912 272.593C361.899 268.42 366.022 238.134 360.08 198.045Z" fill="#1C2F66"/>
<g opacity="0.1">
<path d="M351.298 157.15L278.677 167.349V167.34L344.443 135.069C346.119 139.946 347.736 144.957 349.262 150.086C349.965 152.449 350.644 154.812 351.298 157.15Z" fill="#1C2F66"/>
<path d="M339.314 121.133L278.677 167.34L335.543 111.898C336.826 114.898 338.091 117.982 339.314 121.133Z" fill="#1C2F66"/>
</g>
<path d="M272.442 142.477C277.286 138.521 283.437 136.007 290.141 135.63C307.228 134.658 321.851 147.706 322.815 164.768C323.787 181.854 310.739 196.477 293.652 197.441C291.675 197.55 289.739 197.483 287.853 197.232C285.297 190.293 282.892 183.044 280.663 175.544C277.294 164.206 274.529 153.094 272.442 142.477Z" fill="#3758F9"/>
<path d="M283.546 43.1235C294.306 42.5118 306.599 52.1152 319.395 71.2049C332.535 90.8057 344.753 118.334 353.82 148.728C362.879 179.114 367.723 208.846 367.463 232.461C367.178 258.23 360.885 273.682 349.278 277.143C348.801 277.277 348.373 277.386 347.921 277.479C347.544 277.571 347.217 277.613 346.982 277.629C338.284 278.953 328.689 273.473 318.415 261.49C305.627 246.54 292.839 222.623 282.414 194.148C279.859 187.201 277.403 179.81 275.132 172.184C271.713 160.661 268.906 149.39 266.802 138.672C258.28 95.775 259.998 62.3807 271.403 49.3498C273.775 46.618 276.565 44.7492 279.708 43.8107C280.956 43.4252 282.238 43.1989 283.546 43.1235ZM345.985 268.168C346.186 268.127 346.379 268.076 346.588 268.018C353.376 265.998 357.742 252.33 357.96 232.352C358.212 209.668 353.51 180.933 344.711 151.435C335.912 121.929 324.122 95.3141 311.501 76.4843C300.39 59.9003 289.261 50.8331 282.423 52.8946C281.023 53.3136 279.758 54.1851 278.568 55.5594L278.551 55.5762C271.018 64.1824 267.347 92.6325 276.121 136.804C278.174 147.237 280.898 158.223 284.241 169.452C286.454 176.885 288.842 184.083 291.339 190.846C301.244 217.905 313.739 241.386 325.638 255.288C333.365 264.297 340.672 268.973 345.7 268.194L345.985 268.168Z" fill="#2648C6"/>
<path opacity="0.2" d="M283.546 43.1235C294.306 42.5118 306.599 52.1152 319.395 71.2049C332.535 90.8057 344.753 118.334 353.82 148.728C362.879 179.114 367.723 208.846 367.463 232.461C367.178 258.23 360.885 273.682 349.278 277.143C348.801 277.277 348.373 277.386 347.921 277.479C347.544 277.571 347.217 277.613 346.982 277.629C338.284 278.953 328.689 273.473 318.415 261.49C305.627 246.54 292.839 222.623 282.414 194.148C279.859 187.201 277.403 179.81 275.132 172.184C271.713 160.661 268.906 149.39 266.802 138.672C258.28 95.775 259.998 62.3807 271.403 49.3498C273.775 46.618 276.565 44.7492 279.708 43.8107C280.956 43.4252 282.238 43.1989 283.546 43.1235ZM345.985 268.168C346.186 268.127 346.379 268.076 346.588 268.018C353.376 265.998 357.742 252.33 357.96 232.352C358.212 209.668 353.51 180.933 344.711 151.435C335.912 121.929 324.122 95.3141 311.501 76.4843C300.39 59.9003 289.261 50.8331 282.423 52.8946C281.023 53.3136 279.758 54.1851 278.568 55.5594L278.551 55.5762C271.018 64.1824 267.347 92.6325 276.121 136.804C278.174 147.237 280.898 158.223 284.241 169.452C286.454 176.885 288.842 184.083 291.339 190.846C301.244 217.905 313.739 241.386 325.638 255.288C333.365 264.297 340.672 268.973 345.7 268.194L345.985 268.168Z" fill="#2648C6"/>
</svg>
