<?xml version="1.0" encoding="utf-8"?>
<!-- Generator: Adobe Illustrator 25.2.1, SVG Export Plug-In . SVG Version: 6.00 Build 0)  -->
<svg version="1.1" id="Layer_1" xmlns="http://www.w3.org/2000/svg" xmlns:xlink="http://www.w3.org/1999/xlink" x="0px" y="0px"
	 viewBox="0 0 168 42" style="enable-background:new 0 0 168 42;" xml:space="preserve">
<style type="text/css">
	.st0{fill:#3758F9;}
	.st1{fill:#FFFFFF;}
</style>
<path class="st0" d="M30.2,35.3H6.4c-1.5,0-2.7-1.2-2.7-2.7V8c0-1.5,1.2-2.7,2.7-2.7h23.8c1.5,0,2.7,1.2,2.7,2.7v24.6
	C32.9,34,31.7,35.3,30.2,35.3z"/>
<g>
	<g>
		<path class="st1" d="M12.1,10.4h11.7v3h-8.2v5.1h7v3h-7v5.9h8.5v3h-12V10.4z"/>
	</g>
</g>
<g>
	<path class="st0" d="M42.6,30.3V7.8h3.7v22.5H42.6z"/>
	<path class="st0" d="M58.6,30.5c-1.8,0-3.3-0.4-4.6-1.1c-1.3-0.7-2.3-1.7-3.1-2.9c-0.7-1.2-1.1-2.7-1.1-4.3c0-1.6,0.4-3.1,1.1-4.3
		c0.7-1.2,1.7-2.2,2.9-2.9c1.2-0.7,2.6-1.1,4.2-1.1c1.5,0,2.9,0.3,4.1,1c1.2,0.7,2.2,1.7,2.8,2.9c0.7,1.3,1,2.7,1,4.5
		c0,0.1,0,0.3,0,0.5c0,0.2,0,0.4,0,0.6H52.8v-2.5H64l-1.5,0.8c0-0.9-0.2-1.7-0.5-2.4c-0.4-0.7-0.9-1.3-1.6-1.7
		C59.7,17.2,58.9,17,58,17c-0.9,0-1.7,0.2-2.4,0.6c-0.7,0.4-1.2,1-1.6,1.7c-0.4,0.7-0.6,1.6-0.6,2.5v0.6c0,1,0.2,1.8,0.6,2.6
		c0.4,0.7,1,1.3,1.8,1.7c0.8,0.4,1.7,0.6,2.8,0.6c0.9,0,1.7-0.2,2.4-0.5c0.7-0.3,1.3-0.7,1.9-1.3l2,2.4c-0.7,0.9-1.6,1.5-2.7,1.9
		C61.2,30.3,60,30.5,58.6,30.5z"/>
	<path class="st0" d="M74.4,30.5c-1.2,0-2.2-0.2-3.1-0.6c-0.9-0.4-1.6-1-2.1-1.7c-0.5-0.7-0.7-1.6-0.7-2.5c0-0.9,0.2-1.7,0.6-2.5
		c0.4-0.7,1.1-1.3,2.1-1.7c1-0.4,2.3-0.6,3.9-0.6h4.6v2.5h-4.3c-1.2,0-2.1,0.2-2.5,0.6s-0.7,0.9-0.7,1.6c0,0.7,0.3,1.2,0.8,1.6
		s1.3,0.6,2.2,0.6c0.9,0,1.7-0.2,2.4-0.6c0.7-0.4,1.2-1.1,1.6-1.9l0.6,2.3c-0.4,1-1,1.7-1.9,2.2C76.9,30.2,75.8,30.5,74.4,30.5z
		 M79.3,30.3V27l-0.2-0.7v-5.7c0-1.1-0.3-2-1-2.6c-0.7-0.6-1.7-0.9-3-0.9c-0.9,0-1.7,0.1-2.6,0.4c-0.9,0.3-1.6,0.7-2.2,1.2l-1.5-2.8
		c0.9-0.7,1.9-1.2,3.1-1.5c1.2-0.3,2.4-0.5,3.6-0.5c2.3,0,4.1,0.6,5.3,1.7c1.2,1.1,1.9,2.9,1.9,5.2v9.5H79.3z"/>
	<path class="st0" d="M87.6,30.3V14.1h3.5v4.5l-0.4-1.3c0.5-1.1,1.2-1.9,2.2-2.5c1-0.6,2.3-0.9,3.8-0.9v3.6c-0.1,0-0.3,0-0.4,0
		s-0.3,0-0.4,0c-1.4,0-2.6,0.4-3.4,1.2c-0.8,0.8-1.2,2.1-1.2,3.8v7.8H87.6z"/>
	<path class="st0" d="M109,13.9c1.3,0,2.4,0.3,3.4,0.8c1,0.5,1.8,1.3,2.3,2.3c0.6,1.1,0.9,2.4,0.9,4v9.3h-3.7v-8.8
		c0-1.4-0.3-2.5-1-3.2c-0.7-0.7-1.6-1.1-2.8-1.1c-0.9,0-1.6,0.2-2.3,0.5s-1.2,0.9-1.6,1.6c-0.4,0.7-0.5,1.6-0.5,2.7v8.2h-3.7V14.1
		h3.5v4.4l-0.6-1.4c0.5-1,1.3-1.8,2.4-2.4C106.4,14.1,107.6,13.9,109,13.9z"/>
	<path class="st0" d="M122.2,11.4c-0.7,0-1.3-0.2-1.7-0.7c-0.4-0.4-0.7-1-0.7-1.6c0-0.6,0.2-1.1,0.7-1.6c0.4-0.4,1-0.7,1.7-0.7
		s1.3,0.2,1.7,0.6c0.4,0.4,0.7,0.9,0.7,1.6c0,0.6-0.2,1.2-0.7,1.7C123.5,11.2,122.9,11.4,122.2,11.4z M120.4,30.3V14.1h3.7v16.2
		H120.4z"/>
	<path class="st0" d="M137.9,13.9c1.3,0,2.4,0.3,3.4,0.8c1,0.5,1.8,1.3,2.3,2.3c0.6,1.1,0.9,2.4,0.9,4v9.3h-3.7v-8.8
		c0-1.4-0.3-2.5-1-3.2c-0.7-0.7-1.6-1.1-2.8-1.1c-0.9,0-1.6,0.2-2.3,0.5s-1.2,0.9-1.6,1.6c-0.4,0.7-0.5,1.6-0.5,2.7v8.2H129V14.1
		h3.5v4.4l-0.6-1.4c0.5-1,1.3-1.8,2.4-2.4C135.3,14.1,136.5,13.9,137.9,13.9z"/>
	<path class="st0" d="M155.9,29.6c-1.5,0-2.9-0.3-4.1-1c-1.2-0.7-2.2-1.6-2.9-2.8c-0.7-1.2-1.1-2.5-1.1-4.1c0-1.6,0.4-3,1.1-4.1
		c0.7-1.2,1.7-2.1,2.9-2.8c1.2-0.6,2.6-1,4.1-1c1.3,0,2.6,0.3,3.6,0.8c1.1,0.6,1.9,1.4,2.6,2.6s0.9,2.6,0.9,4.5
		c0,1.8-0.3,3.3-0.9,4.4s-1.5,2-2.6,2.6C158.5,29.3,157.3,29.6,155.9,29.6z M156.4,36.4c-1.5,0-2.9-0.2-4.3-0.6
		c-1.4-0.4-2.5-1-3.4-1.7l1.7-2.8c0.7,0.6,1.6,1.1,2.6,1.4c1,0.4,2.1,0.5,3.3,0.5c1.7,0,3-0.4,3.8-1.2s1.2-2.1,1.2-3.7v-2.9l0.3-3.6
		l-0.1-3.7v-4h3.5v13.8c0,2.9-0.7,5.1-2.2,6.5C161.3,35.7,159.2,36.4,156.4,36.4z M156.5,26.3c0.9,0,1.8-0.2,2.5-0.6
		c0.7-0.4,1.3-0.9,1.7-1.6s0.6-1.5,0.6-2.4c0-0.9-0.2-1.7-0.6-2.4c-0.4-0.7-1-1.2-1.7-1.6s-1.6-0.6-2.5-0.6s-1.8,0.2-2.5,0.6
		s-1.3,0.9-1.7,1.6c-0.4,0.7-0.6,1.5-0.6,2.4c0,0.9,0.2,1.7,0.6,2.4s1,1.2,1.7,1.6C154.7,26.2,155.6,26.3,156.5,26.3z"/>
</g>
</svg>
